<svg xmlns="http://www.w3.org/2000/svg" width="1440" height="900" viewBox="0 0 1440 900">
  <defs>
    <radialGradient id="rg1" cx="75%" cy="25%" r="55%">
      <stop offset="0%" style="stop-color:#1B6CA8;stop-opacity:0.18"/>
      <stop offset="100%" style="stop-color:#060F1E;stop-opacity:0"/>
    </radialGradient>
    <radialGradient id="rg2" cx="15%" cy="85%" r="45%">
      <stop offset="0%" style="stop-color:#4FC3F7;stop-opacity:0.1"/>
      <stop offset="100%" style="stop-color:#060F1E;stop-opacity:0"/>
    </radialGradient>
  </defs>
  <rect width="1440" height="900" fill="#060F1E"/>
  <rect width="1440" height="900" fill="url(#rg1)"/>
  <rect width="1440" height="900" fill="url(#rg2)"/>
  <!-- Ripple rings -->
  <ellipse cx="1100" cy="200" rx="320" ry="180" fill="none" stroke="rgba(79,195,247,0.06)" stroke-width="1"/>
  <ellipse cx="1100" cy="200" rx="240" ry="130" fill="none" stroke="rgba(79,195,247,0.08)" stroke-width="1"/>
  <ellipse cx="1100" cy="200" rx="160" ry="90" fill="none" stroke="rgba(79,195,247,0.1)" stroke-width="1"/>
  <!-- Mountain silhouettes -->
  <path d="M0,700 L200,350 L380,500 L600,280 L800,450 L1000,200 L1200,380 L1440,300 L1440,900 L0,900 Z" fill="rgba(10,35,66,0.4)"/>
  <path d="M0,750 L250,420 L450,560 L700,320 L950,520 L1200,400 L1440,500 L1440,900 L0,900 Z" fill="rgba(6,15,30,0.5)"/>
  <!-- Star particles -->
  <circle cx="200" cy="200" r="2" fill="#4FC3F7" opacity="0.4"/>
  <circle cx="450" cy="350" r="1.5" fill="#4FC3F7" opacity="0.3"/>
  <circle cx="800" cy="150" r="2" fill="#81D4FA" opacity="0.35"/>
  <circle cx="1200" cy="250" r="1.5" fill="#4FC3F7" opacity="0.4"/>
  <circle cx="300" cy="120" r="1" fill="white" opacity="0.3"/>
  <circle cx="650" cy="90" r="1.5" fill="white" opacity="0.25"/>
  <circle cx="980" cy="130" r="1" fill="white" opacity="0.3"/>
</svg>
