<svg xmlns="http://www.w3.org/2000/svg" width="500" height="140" viewBox="0 0 500 140">
  <defs>
    <linearGradient id="logoGrad" x1="0%" y1="0%" x2="100%" y2="100%">
      <stop offset="0%" style="stop-color:#0A2342;stop-opacity:1" />
      <stop offset="50%" style="stop-color:#1B6CA8;stop-opacity:1" />
      <stop offset="100%" style="stop-color:#4FC3F7;stop-opacity:1" />
    </linearGradient>
    <linearGradient id="dropGrad" x1="0%" y1="0%" x2="0%" y2="100%">
      <stop offset="0%" style="stop-color:#4FC3F7;stop-opacity:1" />
      <stop offset="100%" style="stop-color:#1B6CA8;stop-opacity:1" />
    </linearGradient>
    <linearGradient id="goldGrad" x1="0%" y1="0%" x2="100%" y2="100%">
      <stop offset="0%" style="stop-color:#C9A84C;stop-opacity:1" />
      <stop offset="100%" style="stop-color:#F0C040;stop-opacity:1" />
    </linearGradient>
  </defs>
  <circle cx="65" cy="70" r="58" fill="url(#logoGrad)" opacity="0.08"/>
  <circle cx="65" cy="70" r="52" fill="none" stroke="url(#logoGrad)" stroke-width="1.5" opacity="0.3"/>
  <polygon points="65,18 30,82 100,82" fill="url(#logoGrad)" opacity="0.9"/>
  <polygon points="65,28 44,82 86,82" fill="url(#dropGrad)" opacity="0.5"/>
  <polygon points="90,38 70,82 110,82" fill="url(#logoGrad)" opacity="0.6"/>
  <path d="M22,88 Q40,80 58,88 Q76,96 94,88 Q108,80 120,86 L120,102 L22,102 Z" fill="url(#dropGrad)" opacity="0.7"/>
  <path d="M22,96 Q42,86 62,96 Q82,106 102,96 Q112,90 120,94 L120,110 Q100,115 80,110 Q60,105 40,110 Q28,114 22,110 Z" fill="url(#dropGrad)" opacity="0.4"/>
  <rect x="22" y="113" width="96" height="2" rx="1" fill="url(#goldGrad)" opacity="0.8"/>
  <text x="145" y="65" font-family="Georgia, 'Times New Roman', serif" font-size="46" font-weight="700" fill="url(#logoGrad)" letter-spacing="6">SIERRA</text>
  <text x="150" y="100" font-family="Georgia, 'Times New Roman', serif" font-size="30" font-weight="300" fill="#4FC3F7" letter-spacing="18">PURE</text>
  <rect x="145" y="108" width="290" height="2" rx="1" fill="url(#goldGrad)" opacity="0.7"/>
  <text x="148" y="126" font-family="Arial, Helvetica, sans-serif" font-size="11" fill="#6B7A99" letter-spacing="4" font-weight="400">PREMIUM MINERAL WATER</text>
</svg>
